<?xml version="1.0" encoding="UTF-8"?>
<svg width="496pt" height="504pt" version="1.1" viewBox="0 0 496 504" xmlns="http://www.w3.org/2000/svg" xmlns:xlink="http://www.w3.org/1999/xlink">
 <defs>
  <radialGradient id="radialGradient907" cx="248.38" cy="133.79" r="226.44" gradientTransform="matrix(-.002917 1.7769 -4.0843 -.0067047 784.23 -309.78)" gradientUnits="userSpaceOnUse" xlink:href="#linearGradient60703"/>
  <linearGradient id="linearGradient60703">
   <stop stop-color="#1cb0fd" offset="0"/>
   <stop stop-color="#025e8f" stop-opacity=".83529" offset="1"/>
  </linearGradient>
  <radialGradient id="radialGradient3858" cx="248.39" cy="104.42" r="236.41" gradientTransform="matrix(.016195 1.5934 -2.9885 .030374 545.14 -261.94)" gradientUnits="userSpaceOnUse" xlink:href="#linearGradient60703"/>
  <radialGradient id="radialGradient3866" cx="215.84" cy="359.11" r="88.45" gradientTransform="matrix(.023699 4.0811 -7.2236 .041948 2824.1 -734.86)" gradientUnits="userSpaceOnUse" xlink:href="#linearGradient60703"/>
  <radialGradient id="radialGradient3692" cx="252.02" cy="430.48" r="135.78" gradientTransform="matrix(.0042638 2.7878 -3.6516 .0055849 1811.2 -558.78)" gradientUnits="userSpaceOnUse" xlink:href="#linearGradient60703"/>
 </defs>
 <g transform="translate(10.376 12.917)">
  <g>
   <path d="m203.15 2.516c8.67-2.38 17.68-1.1 26.47-2.39 5.12-0.18 10.26-0.2 15.38 0.16 5 1.27 10.31-0.27 15.27 1.32 4.69 0.22 9.33 1.03 13.94 1.92 1.68 0.29 3.37 0.55 5.02 0.99 1.67 0.29 3.35 0.55 4.99 1 6.71 1.33 13.38 2.97 19.92 5.02 1.01 0.32 2.01 0.65 3.02 0.99 1 0.32 2.01 0.65 3.01 1 0.99 0.31 1.99 0.64 2.98 0.99 1 0.31 1.99 0.63 2.99 0.97 1.69 0.59 3.35 1.27 5 2 4.2 1.51 8.09 3.71 12.11 5.63 3.52 1.25 6.85 2.96 9.97 5 0.95 0.48 1.91 0.95 2.87 1.43 5.08 2.29 9.49 5.72 14.16 8.71 4.36 2.95 8.91 5.66 12.83 9.22 6.6 4.65 12.17 10.53 18.22 15.82 3.51 4.76 8.42 8.28 11.75 13.17 1.75 1.93 3.58 3.8 5.01 5.99 1.4 1.6 2.83 3.2 4.01 4.98 1.38 1.62 2.79 3.23 3.98 5.01 2.79 2.98 5 6.43 7.01 9.99 5.47 8.39 10.9 16.85 15.34 25.84 0.97 2.01 1.97 4.01 3 6 1.29 2.66 2.63 5.3 3.59 8.11 0.73 1.63 1.41 3.3 2.02 4.99 1.18 2.61 2.07 5.33 2.97 8.05 0.34 0.98 0.66 1.97 0.98 2.96 1.12 3.29 2.26 6.59 3.01 9.99 0.36 0.99 0.7 1.98 1.04 2.98 0.36 1.3 0.67 2.62 0.99 3.94 0.39 1.33 0.68 2.68 0.99 4.04 0.88 3.25 1.61 6.54 1.98 9.9 0.46 1.65 0.72 3.35 1.03 5.05 0.9 4.61 1.66 9.26 1.91 13.96 1.38 4.39 0.4 9.04 0.98 13.53 0.93 5.28 0.73 10.7-0.09 15.98 0.1 10.76-1.52 21.39-2.36 32.1-0.42 2.51-0.87 5.02-1.5 7.5-1.81 12.65-5.86 24.86-9.92 36.93-0.62 1.69-1.32 3.35-2.07 4.98-0.33 1-0.67 2-1.02 3-0.54 1.67-1.1 3.33-1.6 5.01-1.46 4.59-3.17 9.12-5.94 13.09-1.2 2.56-2.51 5.15-4.82 6.9-1.19-1.97-2.47-3.87-3.58-5.88-2.99-4.82-5.36-9.97-7.96-15-1.41-2.3-2.81-4.6-4.03-7-3.68-6.69-8.01-13.02-13.38-18.47 2.32-3.28 4.2-6.84 5.81-10.52 0.29-1.03 0.62-2.05 0.96-3.06 0.61-2.67 1.31-5.32 2.02-7.97 0.32-1.01 0.65-2.02 1-3.02 0.29-1.35 0.59-2.69 0.96-4.01 0.32-1.36 0.65-2.71 1.05-4.03 0.28-1.71 0.56-3.41 1.02-5.07 0.21-2.04 0.33-4.11 1.04-6.05 0.23-2.68 0.14-5.43 1.06-8 0.24-12.11 0.79-24.31-0.78-36.34-0.17-5.55-1.73-10.94-2.32-16.44-0.44-1.34-0.76-2.72-1.07-4.08-0.38-1.33-0.69-2.67-0.98-4-0.79-2.31-1.47-4.65-2-7.03-0.35-1-0.68-2-0.99-3.01-0.36-0.99-0.7-1.99-1.01-2.99-0.36-1-0.69-2.01-1-3.01-0.75-1.64-1.43-3.31-2.02-5.01-0.73-1.65-1.4-3.32-1.97-5.03-1.28-2.56-2.38-5.19-3.38-7.86-3.26-6.21-7.24-12.01-10.62-18.15-2.59-3.17-4.81-6.62-7.03-10.04-1.42-1.61-2.85-3.21-4.03-4.99-3.06-3.63-5.97-7.39-8.95-11.08-13.88-14.93-29.3-28.75-47.25-38.6-2.41-1.21-4.69-2.62-6.98-4.03-1.61-0.8-3.23-1.59-4.83-2.4-0.52-0.25-1.54-0.74-2.06-0.99-1.71-0.58-3.38-1.25-5.02-1.98-2.4-0.85-4.72-1.91-7-3.04-5-1.69-10.01-3.34-15.01-5.01-2.71-0.54-5.37-1.25-8.03-1.97-1.36-0.29-2.72-0.58-4.04-0.99-1.69-0.31-3.38-0.6-5.03-1.06-6.14-0.77-12.29-1.45-18.44-2.19-7.02-0.03-14.05-0.14-21.06 0.06-3.41 0.61-6.84 0.99-10.29 1.09-1.95 0.76-4.04 0.84-6.09 1.06-1.65 0.46-3.35 0.74-5.03 1.05-1.34 0.4-2.7 0.69-4.06 0.98-1.32 0.38-2.66 0.71-3.99 1.04-1.66 0.42-3.35 0.69-5.03 0.95-2.29 0.8-4.62 1.49-6.98 2-2 0.7-4 1.39-6.02 2.02-1.64 0.77-3.3 1.47-5.01 2.05-1.64 0.74-3.3 1.43-5 2-1.65 0.72-3.33 1.39-5.04 1.95-3.63 1.78-7.27 3.56-10.87 5.42-1.71 0.83-3.39 1.7-5.08 2.56-1.6 1.14-3.3 2.11-5.01 3.04-7.07 4.14-13.54 9.12-20.09 14.01-4.49 4.19-9.59 7.73-13.51 12.53-2.29 3.02-5.02 5.65-7.57 8.44-3.01 3.67-5.85 7.49-8.95 11.09-4.33 6.06-8.83 12-12.46 18.52-3.73 5.56-5.92 11.98-9.55 17.59-1.1 3.07-2.59 5.98-4.01 8.92-0.56 1.72-1.25 3.39-2.01 5.04-0.31 1.01-0.64 2.01-0.98 3-0.34 1.02-0.69 2.02-1.05 3.03-0.28 1.33-0.57 2.66-0.93 3.97-0.36 1.01-0.72 2.02-1.1 3.02-0.27 1.34-0.55 2.69-0.91 4.01-0.35 1-0.7 2-1.07 2.99-0.27 1.32-0.55 2.64-0.91 3.94-0.35 1.38-0.68 2.77-1.08 4.13-0.27 1.69-0.53 3.4-0.98 5.05-0.27 2.01-0.48 4.05-1.08 6-0.22 2.69-0.14 5.45-1.06 8.03-0.02 13.94-1.47 28.07 1.11 41.86 0.45 1.64 0.73 3.32 1.02 5.01 0.84 2.95 1.48 5.97 1.99 9 0.39 1.33 0.7 2.68 1.01 4.04 0.36 1.32 0.67 2.65 0.98 3.99 0.72 2 1.39 4.02 2.01 6.05 1.89 4.37 4.34 8.44 6.77 12.51-6.24 8-12.2 16.25-16.9 25.28-3.39 5.63-6.63 11.34-9.94 17.01-0.23 0.5-0.7 1.51-0.94 2.01-0.7 1.41-1.41 2.8-2.13 4.22-2.12-3.56-4.03-7.25-5.39-11.17-0.25-0.51-0.76-1.54-1.02-2.06-1.13-2.26-2.24-4.53-3.02-6.94-1.09-2.28-2.14-4.59-3-6.97-0.74-1.64-1.42-3.31-2.04-4.99-0.84-1.93-1.51-3.93-1.97-5.98-0.34-1-0.66-2.01-0.97-3.01-0.36-1.34-0.68-2.68-0.99-4.02-0.8-2.3-1.47-4.64-2.05-6.99-0.38-1.32-0.67-2.67-0.96-4-1.31-4.91-2.36-9.89-3-14.93-0.93-4.28-1.49-8.65-1.97-13.01-1.45-8.75-2.02-17.64-1.75-26.52-0.33-13.92 0.64-27.84 2.77-41.58 0.21-4.36 0.93-8.67 1.94-12.91 0.31-1.34 0.63-2.67 1.01-3.99 0.87-3.7 1.79-7.4 3-11 0.3-1.34 0.6-2.67 0.96-3.99 0.34-1.01 0.69-2 1.05-3 0.3-1 0.63-2.01 0.96-3 0.98-3.12 2.11-6.18 3.59-9.1 0.78-1.97 1.53-3.96 2.4-5.9 0.58-1.7 1.26-3.36 1.99-4.99 1.66-4.48 4.07-8.61 6-12.96 0.88-2.59 2.47-4.84 4.06-7.02 2.03-4.16 4.22-8.25 6.95-11.99 0.65-1.02 1.33-2.02 2.02-3.01 4.09-7.6 10.03-13.98 15.03-20.96 0.62-1.05 1.27-2.08 1.92-3.1 9.61-12.58 21.66-22.96 33.88-32.89 1.02-0.66 2.05-1.31 3.09-1.93 2.6-2.07 5.24-4.07 7.93-6.02 2.63-1.74 5.25-3.49 8.03-4.98 5.59-4.59 12.68-6.75 18.86-10.4 3.62-1.77 7.25-3.55 11.01-5.02 2.91-1.48 5.97-2.61 9.08-3.57 3.87-1.68 7.89-3.02 11.99-4.01 1-0.35 2-0.67 3.01-0.98 0.99-0.35 1.99-0.69 2.99-1.01 1.32-0.37 2.66-0.68 4-0.99 1.32-0.39 2.65-0.71 3.99-1.03 1.63-0.41 3.3-0.68 4.97-0.94 2.96-0.83 5.95-1.53 8.98-2.05 1.64-0.44 3.33-0.71 5-1z" fill="url(#radialGradient907)"/>
   <path d="m228.15 116.57c5.28-0.94 10.84-1.04 16.11 0.01 3.37 0.15 6.71 0.73 9.89 1.86 2.1 0.74 4.12 1.69 6.13 2.64 10.56 4.75 18.49 13.59 25.76 22.32 2.5 3.21 4.73 6.63 6.98 10.03 0.68 0.99 1.35 1.99 2 3.01 1.83 3.1 3.8 6.11 6.01 8.96 1.55 1.84 2.87 3.84 3.99 5.97 1.95 2.83 3.38 5.96 4.94 9.02 2.5 3.89 4.9 7.86 7.03 11.97 1.12 1.61 2.09 3.32 3 5.06 6.37 9.8 13.43 19.23 18.4 29.88 2.92 4.99 5.83 10 8.59 15.09 1.11 1.6 2.09 3.28 3.02 5.01 2.87 4.21 5.46 8.61 8.01 13.02 1.94 2.84 3.43 5.95 4.93 9.03 1.51 2.6 3.14 5.12 4.44 7.83 1.22 2.02 2.5 4.02 3.62 6.11 3.46 5.09 6.67 10.37 9.38 15.91 3.05 5.47 6.43 10.72 9.62 16.11 1.77 2.59 3.49 5.22 5.01 7.97 1.1 1.6 2.07 3.29 3 5 1.08 1.61 2.05 3.29 3 5 1.52 2.21 2.73 4.62 3.96 7 8.44 13.63 17.67 26.82 25.08 41.07 4.58 8 9.78 15.62 14.39 23.61 4.56 8 10.27 15.28 14.96 23.21 3.55 6.31 7.6 12.33 11.76 18.26 2.07 1.26 2.54 3.75 3.28 5.88-2.03 1.58-3.53 3.67-5.21 5.59-5.81 6.12-12.71 11.07-19.65 15.81-2.15 1.26-4.27 3.02-6.86 3.09-3.74-1.87-5.3-6.03-7.89-9.07-8.33-10.4-14.57-22.21-21.61-33.48-3.87-6.22-7.43-12.63-11.15-18.94-4.07-6.53-8.63-12.77-12.27-19.57-2.86-5.36-6.18-10.45-9.62-15.44-3.28-4.58-5.27-9.9-8.27-14.63-2.74-5.14-6.11-9.9-9.02-14.94-2.97-5.33-6.99-10.03-9.44-15.66-1.49-2.59-3.11-5.11-4.45-7.78-3.49-5.85-6.63-11.9-10.46-17.55-2.47-4.36-5.89-8.1-8.17-12.57-4.84-8.98-10.7-17.33-16-26.02-1.86-2.88-3.36-5.96-4.95-8.98-1.12-1.61-2.11-3.3-3.06-5.01-1.46-2.25-2.71-4.63-3.96-6.99-1.12-1.6-2.09-3.3-3.01-5.01-2.43-3.6-4.94-7.17-7.01-10.99-2.52-3.57-4.61-7.41-7.01-11.05-3.04-3.72-5.67-7.79-8.01-11.99-1.48-2.24-2.74-4.62-3.94-7.02-2.83-4.26-5.87-8.39-8.43-12.82-3.19-5.07-6.49-10.05-9.61-15.16-4.35-5.52-7.6-11.92-13.16-16.41-1.32 0.02-2.64 0.06-3.95 0.11-1.06 0.41-2.11 0.78-3.18 1.13-1.37 0.66-2.72 1.33-4.09 1.97-3.14 2.91-6.08 6.02-9.02 9.13-1.26 2.06-2.61 4.07-3.98 6.06-3.51 4.9-6.17 10.37-10.02 15.02-1.13 2.08-2.4 4.08-3.59 6.12-5.55 10.3-12.47 19.78-18.38 29.87-1.68 3.17-3.77 6.09-5.62 9.15-1 2.04-2.04 4.05-3.36 5.91-0.66 0.99-1.34 1.97-2.02 2.96-0.64 1.02-1.32 2.01-2.01 3.01-3.08 5.48-6.96 10.46-9.98 15.98-1.75 2.62-3.28 5.38-5 8.02-0.66 1-1.34 1.99-2.02 2.98-6.02 9.65-12.01 19.33-17.97 29.01-0.67 1.01-1.35 2-2.04 2.99-11.32 20.04-23.56 39.53-35.64 59.12-5 10.08-12.1 18.95-17.35 28.92-6.56 13.11-15.56 24.86-22.22 37.94-7.38 12.89-14.82 25.91-24.56 37.21-0.75 0.11-2.27 0.32-3.02 0.42 0.41 0.51 1.23 1.52 1.64 2.02-1.14 1.19-2.42 2.23-3.67 3.3-5.78-3.33-11.95-6.32-16.37-11.49-4.43-3.29-8.98-6.42-12.79-10.47-0.28-2.08-0.37-4.17-0.39-6.26 1-1.47 1.94-2.97 2.8-4.52 2.98-5.49 6.57-10.64 9.55-16.14 1.52-3.13 3.42-6.03 5.39-8.88 0.65-1.03 1.33-2.04 2.02-3.02 0.92-1.72 1.9-3.4 2.99-5.01 2.35-3.98 4.57-8.03 6.97-11.98 2.7-3.99 5.36-8 8.04-12 0.94-1.71 1.93-3.4 3.04-5.01 1.58-3.05 3-6.19 4.93-9.04 0.94-1.7 1.93-3.37 3.02-4.97 0.95-1.71 1.94-3.39 3.04-5 2.17-4.59 5.14-8.74 7.98-12.93 1.47-2.8 3.2-5.46 5-8.06 1.09-2.1 2.36-4.1 3.58-6.12 1.04-2.01 2.12-4 3.4-5.86 0.94-1.71 1.92-3.4 3.01-5.01 0.92-1.72 1.88-3.41 2.98-5.02 1.97-2.97 3.74-6.07 5.62-9.1 1.02-2.03 2.08-4.05 3.38-5.92 3.44-6.15 7.19-12.09 11.08-17.97 0.65-1.31 1.31-2.62 1.96-3.93 0.88-1.76 1.84-3.48 2.96-5.1 1.5-2.76 3.24-5.37 5.03-7.94 1.1-2.11 2.37-4.1 3.59-6.13 1.19-2.42 2.59-4.72 3.98-7.02 0.75-1.32 1.54-2.62 2.39-3.87 1.99-2.97 3.77-6.07 5.62-9.12 1.02-2.04 2.09-4.05 3.4-5.91 0.94-1.71 1.9-3.41 2.98-5.03 0.58-1.37 1.22-2.71 1.92-4.03 0.6-1.35 1.28-2.66 2.05-3.92 3.76-5.59 6.86-11.59 10.71-17.13 0.24-0.5 0.7-1.51 0.94-2.02 0.24-0.5 0.73-1.51 0.97-2.02 1.05-1.99 2.12-3.98 3.4-5.83 0.67-1.01 1.36-1.99 2.06-2.97 1.09-2.11 2.36-4.12 3.55-6.17 1.59-2.71 3.47-5.24 5.05-7.95 0.99-2.04 2.07-4.03 3.33-5.91 0.67-1.02 1.37-2.02 2.09-3 1.24-2.39 2.47-4.79 3.94-7.04 1.43-2.79 3.2-5.39 5.02-7.93 0.93-1.71 1.9-3.39 2.98-5 2.51-3.56 4.74-7.3 6.97-11.03 5.78-8.98 14.34-16.14 23.88-20.85 2.06-1.57 4.59-2.23 7-3.03 3.57-1.02 7.23-1.71 10.94-1.94z" fill="url(#radialGradient3858)"/>
   <path d="m168.37 294.41c1.44-2.67 3.19-5.15 4.75-7.75 3.64 4.39 8.32 7.67 12.96 10.92 3.98 2.04 7.95 4.11 12.01 6 1.71 0.58 3.39 1.24 5.05 1.97 1 0.32 2 0.65 2.99 1 2.36 0.56 4.7 1.24 6.99 2.03 3.41 0.6 6.85 1.15 10.19 2.09 4.45 0.16 8.9 0.36 13.3 1.09 4.2 0.06 8.34-1.08 12.56-1.11 3-0.79 6.06-1.32 9.07-2.08 1.3-0.4 2.62-0.72 3.95-1.03 1.33-0.37 2.67-0.69 4.02-1 1.01-0.36 2.03-0.69 3.06-1 1.63-0.73 3.29-1.41 4.97-2.01 1.65-0.74 3.32-1.42 5.03-1.99 0.51-0.25 1.53-0.73 2.04-0.98 0.5-0.25 1.49-0.75 1.99-1 0.96-0.48 1.92-0.95 2.89-1.41 4.98-3.05 9.81-6.38 14.19-10.26 4.73 7.93 9.06 16.15 14.64 23.53 3.7 4.88 7.16 9.93 10.68 14.94 0 0.44-0.01 1.32-0.02 1.76-5.5 4.18-11.29 7.98-17.5 11.02-1.3 0.79-2.65 1.47-4.05 2.05-3.24 1.54-6.57 2.87-10 3.91-1 0.34-2 0.68-2.99 1.01-4.84 2.07-9.88 3.7-14.96 5.02-2.58 0.93-5.23 1.65-7.96 1.98-1.33 0.41-2.68 0.72-4.03 1.06-2.91 0.77-5.93 0.66-8.9 0.84-3.08 1.01-6.36 0.67-9.53 1.03-5.89 0.93-11.92 0.92-17.84 0.35-4.2-0.93-8.59-0.13-12.76-1.27-16.73-2.89-33.15-8.01-48.44-15.42-6.06-3.62-12.74-6.46-17.92-11.33 0.22-2.48 2.28-4.8 3.56-7 0.94-1.71 1.91-3.4 3.01-5.01 0.94-1.69 1.92-3.35 3.01-4.95 2.58-4.34 5.06-8.74 7.57-13.12 0.75-1.33 1.55-2.63 2.42-3.88z" fill="url(#radialGradient3866)"/>
   <path d="m125.09 363.62c6.41 7.46 14.84 12.68 23.02 17.95 5.28 2.76 10.6 5.43 15.99 7.97 1.71 0.58 3.39 1.25 5.05 2 2.71 0.88 5.41 1.79 8 3.02 2 0.64 4 1.31 5.99 2 1.02 0.31 2.03 0.64 3.03 1 4 0.98 8 1.97 11.98 3.03 4.87 0.78 9.65 2.07 14.57 2.55 5.05 1.12 10.27 0.41 15.35 1.26 8.2 1.48 16.36-1.02 24.59-0.58 7.23-0.53 14.37-2 21.5-3.27 1.33-0.41 2.7-0.72 4.07-1.01 2.97-0.79 5.96-1.52 9-1.97 4-1.35 8-2.7 12.01-4.04 1.64-0.76 3.31-1.45 5.03-2.01 2.56-1.27 5.2-2.36 7.86-3.39 2.66-1.34 5.33-2.66 7.98-4.03 1.34-0.64 2.67-1.29 4.01-1.94 8.62-5.46 17.28-10.94 24.87-17.81 1.11 4.73 4.07 8.66 6.04 13.02 2.44 3.97 4.31 8.3 7.35 11.89 3.39 4.77 7.63 8.92 10.62 13.98-13.14 11.32-28.45 19.78-44.36 26.54-5.68 2.79-11.46 5.43-17.53 7.26-0.97 0.43-1.92 0.87-2.88 1.31-4.77 1.06-9.32 2.85-14.06 4.04-10.39 3.33-21.36 3.98-32.04 5.9-17.52 2.12-35.3 2.02-52.81 0.02-5.32-1.16-10.7-1.92-16.03-2.97-7.07-1.37-14-3.37-21.03-4.95-2.35-0.66-4.72-1.26-7.07-1.93-3.68-1.47-7.42-2.81-11.02-4.47-0.5-0.13-1.49-0.39-1.99-0.52-0.99-0.49-1.97-0.98-2.95-1.47-17.52-5.92-32.89-16.57-47.8-27.25 0.98-1.45 1.93-2.9 2.95-4.32 0.65-1.02 1.31-2.03 1.98-3.02 0.66-1.02 1.34-2.03 2.04-3.01 1.94-3.37 3.9-6.72 6.02-9.98 1.73-3.44 3.54-6.84 5.58-10.11l2.01-4.02c1.12-2.18 2.17-4.4 3.08-6.67z" fill="url(#radialGradient3692)"/>
  </g>
  <g fill="none" stroke="#a5abb3">
   <path d="m473.7 451.01c-8.9038 12.134-20.118 19.483-32.127 25.183" stroke-width="3.85"/>
   <g stroke-width="3.15">
    <path d="m1.5728 453.19c0.27377 3.7074 28.888 24.17 30.245 22.506"/>
    <path d="m124.69 364.93c60.49 53.061 152.3 58.173 223.9 0.73"/>
    <path d="m173.12 286.66c38.768 32.513 80.921 35.275 127.26 1.23"/>
   </g>
   <path d="m404.62 299.92c29.999-56.372 12.709-121.39-13.22-164.68" stroke-width="1.85"/>
   <path d="m0.92438 453.84 166.49-280.45" stroke-width="2.15"/>
   <g stroke-width="1.85">
    <path d="m68.022 299.98c-20.717-43.401-30.209-109.24 36.029-193.93"/>
    <path d="m101.95 405.02c0.35496-0.47328 23.822-41.003 23.822-41.003"/>
    <path d="m148.8 328.37c1.6565-4.0229 23.901-38.691 23.901-38.691"/>
   </g>
   <path d="m274.57 204.91c58.022 90.742 106.77 182.22 168.15 271.99" stroke-width="1.35"/>
  </g>
 </g>
</svg>
